<svg width="24" height="16" viewBox="0 0 24 16" fill="none" xmlns="http://www.w3.org/2000/svg">
<path d="M0 2C0 0.895431 0.895431 0 2 0H22C23.1046 0 24 0.895431 24 2V14C24 15.1046 23.1046 16 22 16H2C0.89543 16 0 15.1046 0 14V2Z" fill="#D4DEF7"/>
<path d="M17.7114 4.93538L17.247 5.95908H18.1783L17.7114 4.93538ZM12.3528 5.56974C12.4403 5.5282 12.4919 5.43783 12.4919 5.32562C12.4919 5.21565 12.4377 5.136 12.3502 5.09858C12.2705 5.05709 12.1478 5.0523 12.0302 5.0523H11.1994V5.62268H12.0191C12.1504 5.62271 12.2601 5.62096 12.3528 5.56974ZM1.70733 4.93538L1.24821 5.95908H2.16922L1.70733 4.93538ZM23.0832 11.4935H21.7803V10.9427H23.0779C23.2066 10.9427 23.2967 10.9274 23.3509 10.8791C23.4022 10.836 23.4312 10.7752 23.4307 10.7116C23.4307 10.6368 23.398 10.5773 23.3482 10.5418C23.2993 10.5026 23.228 10.4847 23.1105 10.4847C22.477 10.4651 21.6867 10.5025 21.6867 9.68972C21.6867 9.31722 21.9467 8.92508 22.6547 8.92508H23.9986V8.41403H22.75C22.3732 8.41403 22.0994 8.49613 21.9056 8.62383V8.41403H20.0587C19.7634 8.41403 19.4168 8.48062 19.2528 8.62383V8.41403H15.9546V8.62383C15.6922 8.45155 15.2492 8.41403 15.0449 8.41403H12.8694V8.62383C12.6618 8.44088 12.1999 8.41403 11.9185 8.41403H9.48381L8.92675 8.96256L8.40492 8.41403H4.76792V11.9982H8.3363L8.91032 11.4409L9.4511 11.9982L11.6507 12V11.1569H11.867C12.1588 11.1611 12.503 11.1503 12.8067 11.0309V11.9981H14.621V11.0639H14.7085C14.8201 11.0639 14.8312 11.0682 14.8312 11.1697V11.9979H20.3427C20.6926 11.9979 21.0584 11.9165 21.2609 11.7685V11.9979H23.0092C23.3729 11.9979 23.7282 11.9515 23.9986 11.8328V11.1651C23.8347 11.3831 23.5152 11.4936 23.0831 11.4936L23.0832 11.4935ZM11.8959 10.6472H11.054V11.5087H9.74264L8.91185 10.6585L8.04851 11.5087H5.37602V8.94021H8.08962L8.91967 9.78216L9.77784 8.94021H11.9337C12.4691 8.94021 13.0707 9.0751 13.0707 9.7864C13.0707 10.4999 12.4856 10.6472 11.8959 10.6472ZM15.9439 10.5307C16.0392 10.6561 16.053 10.7731 16.0558 10.9996V11.5087H15.3783V11.1874C15.3783 11.0329 15.3947 10.8041 15.2693 10.6846C15.1708 10.5927 15.0205 10.5707 14.7743 10.5707H14.0533V11.5087H13.3754V8.94024H14.9329C15.2746 8.94024 15.5234 8.95406 15.7448 9.06143C15.9577 9.17847 16.0917 9.33881 16.0917 9.63181C16.0916 10.0417 15.7911 10.2509 15.6135 10.3151C15.7636 10.3655 15.8863 10.4559 15.9439 10.5307ZM18.7309 9.47142H17.151V9.93835H18.6923V10.4624H17.151V10.9735L18.7309 10.9757V11.5087H16.4791V8.94021H18.7309V9.47142ZM20.4646 11.5087H19.1506V10.9579H20.4594C20.5874 10.9579 20.6781 10.9425 20.735 10.8943C20.7814 10.8546 20.8147 10.7968 20.8147 10.7269C20.8147 10.6519 20.7786 10.5925 20.7324 10.5569C20.6808 10.5177 20.6095 10.5 20.4921 10.5C19.8611 10.4803 19.071 10.5177 19.071 9.70494C19.071 9.33238 19.3283 8.94024 20.0356 8.94024H21.3883V9.48684H20.1505C20.0279 9.48684 19.9481 9.49111 19.8803 9.53336C19.8063 9.57496 19.7789 9.63663 19.7789 9.71806C19.7789 9.81494 19.8417 9.88091 19.9265 9.90939C19.9977 9.93192 20.0741 9.93849 20.1891 9.93849L20.5523 9.94752C20.9184 9.9555 21.1699 10.0133 21.3228 10.154C21.454 10.2777 21.5246 10.4338 21.5246 10.6982C21.5245 11.2507 21.145 11.5087 20.4646 11.5087ZM15.2319 9.51285C15.1504 9.46879 15.0301 9.46645 14.91 9.46645H14.0792V10.0433H14.8989C15.0301 10.0433 15.1417 10.0391 15.2319 9.99035C15.3193 9.94226 15.3717 9.85368 15.3717 9.74383C15.3717 9.63398 15.3193 9.55445 15.2319 9.51285ZM22.7702 9.46639C22.6475 9.46639 22.5659 9.47063 22.4972 9.51279C22.426 9.55445 22.3987 9.61612 22.3987 9.69761C22.3987 9.79443 22.4588 9.8604 22.5462 9.88894C22.6174 9.91147 22.6938 9.91804 22.8061 9.91804L23.1719 9.9269C23.5408 9.93522 23.7872 9.99298 23.9374 10.1337C23.9648 10.1533 23.9812 10.1752 24 10.1973V9.46645H22.7703L22.7702 9.46639ZM11.9192 9.46639H11.0395V10.1206H11.9114C12.1706 10.1206 12.3318 10.0035 12.3319 9.78134C12.3318 9.55673 12.1628 9.46639 11.9192 9.46639ZM6.04801 9.46639V9.93338H7.52915V10.4575H6.04801V10.9684H7.70678L8.47748 10.2149L7.73952 9.46639H6.04801ZM10.3795 11.2626V9.20336L9.34365 10.2164L10.3795 11.2626ZM6.10462 7.13873V7.58129H11.7414L11.7387 6.64504H11.8478C11.9242 6.64746 11.9464 6.65386 11.9464 6.76859V7.58132H14.8618V7.36334C15.097 7.47798 15.4627 7.58132 15.9439 7.58132H17.1704L17.4329 7.01097H18.0149L18.2716 7.58132H20.635V7.03954L20.9929 7.58129H22.8869V4H21.0125V4.42296L20.7501 4H18.8267V4.42296L18.5857 4H15.9877C15.5528 4 15.1706 4.05522 14.8618 4.20913V4H13.0689V4.20913C12.8724 4.05049 12.6046 4 12.307 4H5.75699L5.31753 4.92504L4.8662 4H2.80317V4.42296L2.57649 4H0.817064L3.07699e-05 5.70282V7.0649L1.20818 4.49699H2.21063L3.35804 6.92826V4.49699H4.45927L5.34221 6.23899L6.15336 4.49699H7.27668V7.0649H6.58513L6.5826 5.05376L5.60424 7.0649H5.01186L4.03101 5.05198V7.0649H2.65867L2.39944 6.49212H0.994668L0.732754 7.0649H0V7.5815H1.15283L1.41274 7.01111H1.99472L2.25396 7.5815H4.5221V7.14539L4.72453 7.58331H5.90197L6.10444 7.13882L6.10462 7.13873ZM14.987 4.79631C15.205 4.59136 15.5466 4.49685 16.0115 4.49685H16.6647V5.04707H16.0252C15.7791 5.04707 15.64 5.08038 15.5061 5.19923C15.391 5.30733 15.3121 5.51172 15.3121 5.78086C15.3121 6.05598 15.3723 6.25433 15.4976 6.3839C15.6015 6.48552 15.7903 6.51634 15.9679 6.51634H16.271L17.2219 4.49693H18.2327L19.375 6.92577V4.49696H20.4023L21.5883 6.28536V4.49696H22.2794V7.06478H21.3233L20.0444 5.13746V7.06478H18.6704L18.4078 6.492H17.0063L16.7516 7.06478H15.962C15.6341 7.06478 15.2189 6.99881 14.9837 6.78075C14.7466 6.56274 14.6233 6.26739 14.6233 5.80046C14.6232 5.41957 14.6968 5.07144 14.987 4.79631ZM13.5992 4.49688H14.2876V7.06478H13.5992V4.49688ZM10.4955 4.49688H12.0472C12.392 4.49688 12.6462 4.5052 12.8643 4.61988C13.0777 4.73458 13.2057 4.90204 13.2057 5.18842C13.2057 5.59788 12.9053 5.80937 12.7303 5.87292C12.8779 5.92405 13.0041 6.01435 13.0642 6.08915C13.1594 6.21688 13.1758 6.33097 13.1758 6.56028V7.06475H12.4953L12.4928 6.74092C12.4928 6.58637 12.509 6.36415 12.3863 6.24069C12.2877 6.15041 12.1374 6.13075 11.8945 6.13075H11.1702V7.06478H10.4956L10.4955 4.49688ZM7.77562 4.49688H10.0295V5.03162H8.45037V5.49448H9.99157V6.02087H8.45037V6.5337H10.0295V7.06475H7.77562V4.49688Z" fill="#2557D6"/>
</svg>
