<svg width="100" height="28" viewBox="0 0 100 28" fill="none" xmlns="http://www.w3.org/2000/svg">
<path d="M16.9271 1.83042C15.6737 0.968747 14.0381 0.536865 12.0203 0.536865H4.20851C3.58993 0.536865 3.24819 0.846226 3.18327 1.46435L0.00996095 21.384C-0.0230197 21.5797 0.0259288 21.7586 0.156359 21.9213C0.286043 22.0842 0.449156 22.1653 0.644503 22.1653H4.35505C5.00586 22.1653 5.36357 21.8566 5.42924 21.2378L6.30793 15.8675C6.34001 15.6072 6.45447 15.3956 6.64982 15.2326C6.84502 15.07 7.08917 14.9636 7.38211 14.9149C7.67506 14.8666 7.95129 14.8421 8.21215 14.8421C8.47227 14.8421 8.78133 14.8586 9.13994 14.891C9.49765 14.9234 9.72568 14.9394 9.82343 14.9394C12.6225 14.9394 14.8195 14.1507 16.4146 12.5715C18.0091 10.9932 18.8072 8.80454 18.8072 6.00463C18.8072 4.08429 18.1799 2.69299 16.9271 1.82997V1.83042ZM12.8994 7.81169C12.7362 8.95109 12.3135 9.69935 11.6301 10.0575C10.9464 10.4161 9.96998 10.5946 8.70074 10.5946L7.08946 10.6433L7.91965 5.41904C7.98442 5.06132 8.19588 4.88224 8.55419 4.88224H9.48213C10.7834 4.88224 11.728 5.06983 12.3138 5.44351C12.8994 5.81809 13.0948 6.60768 12.8994 7.81169Z" fill="#003087"/>
<path d="M99.3647 0.536865H95.7522C95.3931 0.536865 95.1818 0.715947 95.1173 1.07426L91.9437 21.3849L91.8948 21.4825C91.8948 21.6461 91.9598 21.7999 92.0904 21.9465C92.2198 22.0927 92.3834 22.166 92.5784 22.166H95.8013C96.4186 22.166 96.7605 21.8574 96.8267 21.2385L99.9999 1.2696V1.2211C99.9998 0.765193 99.7876 0.537464 99.3647 0.537464V0.536865Z" fill="#009CDE"/>
<path d="M55.717 8.39809C55.717 8.23572 55.6517 8.08082 55.5223 7.93472C55.3917 7.78832 55.2452 7.7146 55.0828 7.7146H51.3234C50.9647 7.7146 50.6717 7.87816 50.4443 8.20274L45.2691 15.8195L43.1209 8.49599C42.9573 7.97561 42.5998 7.7146 42.0469 7.7146H38.3845C38.2214 7.7146 38.075 7.78802 37.9456 7.93472C37.815 8.08082 37.7502 8.23602 37.7502 8.39809C37.7502 8.4636 38.0677 9.42347 38.7022 11.2787C39.3368 13.1346 40.0203 15.1364 40.7527 17.2848C41.4851 19.4327 41.8673 20.5725 41.9 20.7016C39.2308 24.3477 37.8968 26.3006 37.8968 26.5605C37.8968 26.9841 38.108 27.1954 38.5315 27.1954H42.2909C42.6487 27.1954 42.9415 27.033 43.1699 26.7074L55.62 8.73968C55.6847 8.67522 55.717 8.5618 55.717 8.39794V8.39809Z" fill="#003087"/>
<path d="M90.7247 7.71455H87.014C86.5578 7.71455 86.2822 8.25179 86.1844 9.32613C85.3371 8.02451 83.7921 7.3728 81.5457 7.3728C79.2023 7.3728 77.2084 8.25179 75.5651 10.0095C73.9211 11.7671 73.0996 13.8346 73.0996 16.2104C73.0996 18.1312 73.661 19.6609 74.7837 20.7997C75.9067 21.9397 77.4118 22.5086 79.3004 22.5086C80.2441 22.5086 81.2043 22.3129 82.1807 21.9227C83.1571 21.5321 83.9213 21.0116 84.4757 20.3603C84.4757 20.393 84.4424 20.539 84.3781 20.7992C84.3123 21.0601 84.2802 21.2561 84.2802 21.3851C84.2802 21.9066 84.4912 22.1662 84.9151 22.1662H88.2841C88.9018 22.1662 89.2602 21.8576 89.3575 21.2387L91.3596 8.49564C91.3917 8.30014 91.3431 8.12151 91.2131 7.95854C91.0822 7.79618 90.9199 7.71455 90.7247 7.71455ZM84.3533 17.3333C83.5233 18.1471 82.5223 18.5537 81.3507 18.5537C80.4063 18.5537 79.6421 18.2938 79.0559 17.7726C78.4697 17.253 78.1768 16.5368 78.1768 15.6244C78.1768 14.421 78.5837 13.4029 79.3978 12.573C80.2104 11.743 81.2204 11.3281 82.4247 11.3281C83.3353 11.3281 84.0922 11.5966 84.6949 12.1334C85.2965 12.6706 85.5985 13.4111 85.5985 14.3553C85.5982 15.527 85.1832 16.52 84.3533 17.3333Z" fill="#009CDE"/>
<path d="M35.2599 7.71455H31.5492C31.0928 7.71455 30.8168 8.25179 30.719 9.32613C29.8402 8.02451 28.294 7.3728 26.0807 7.3728C23.7372 7.3728 21.7433 8.25179 20.0998 10.0095C18.4558 11.7671 17.6343 13.8346 17.6343 16.2104C17.6343 18.1312 18.1958 19.6609 19.3188 20.7997C20.4418 21.9397 21.9468 22.5086 23.8349 22.5086C24.7458 22.5086 25.6903 22.3129 26.6666 21.9227C27.643 21.5321 28.4243 21.0116 29.0101 20.3603C28.8796 20.7506 28.8148 21.0925 28.8148 21.3851C28.8148 21.9066 29.0263 22.1662 29.4495 22.1662H32.8183C33.4362 22.1662 33.7947 21.8576 33.8924 21.2387L35.8941 8.49564C35.9262 8.30014 35.8775 8.12151 35.7477 7.95854C35.6174 7.79618 35.4549 7.71455 35.2599 7.71455ZM28.8884 17.3575C28.0582 18.1559 27.0406 18.5537 25.837 18.5537C24.8925 18.5537 24.1358 18.2938 23.5666 17.7726C22.9967 17.253 22.7121 16.5368 22.7121 15.6244C22.7121 14.421 23.1187 13.4029 23.9328 12.573C24.746 11.743 25.7551 11.328 26.9598 11.328C27.8708 11.328 28.6275 11.5966 29.2303 12.1334C29.832 12.6706 30.1334 13.4111 30.1334 14.3553C30.1333 15.5596 29.7184 16.5608 28.8884 17.3575Z" fill="#003087"/>
<path d="M72.3915 1.83042C71.1382 0.968747 69.5031 0.536865 67.4848 0.536865H59.7217C59.0706 0.536865 58.7123 0.846226 58.6477 1.46435L55.4741 21.384C55.4411 21.5797 55.49 21.7586 55.6206 21.9213C55.7497 22.0842 55.9133 22.1653 56.1086 22.1653H60.1119C60.5025 22.1653 60.7628 21.9539 60.8933 21.5307L61.7722 15.8675C61.8046 15.6072 61.9184 15.3956 62.1141 15.2326C62.3094 15.07 62.5533 14.9636 62.8465 14.9149C63.1391 14.8666 63.4154 14.8421 63.6764 14.8421C63.9366 14.8421 64.2456 14.8586 64.6039 14.891C64.9617 14.9234 65.1904 14.9394 65.2874 14.9394C68.087 14.9394 70.2835 14.1507 71.8787 12.5715C73.4737 10.9932 74.2711 8.80454 74.2711 6.00463C74.2712 4.08429 73.6443 2.69284 72.3915 1.82997V1.83042ZM67.3872 9.86201C66.671 10.3502 65.5967 10.5942 64.165 10.5942L62.6024 10.6431L63.4324 5.41874C63.4969 5.06117 63.7085 4.88179 64.0669 4.88179H64.9455C65.6616 4.88179 66.2311 4.91448 66.6549 4.97939C67.0773 5.04476 67.4848 5.24786 67.8754 5.58946C68.2662 5.93135 68.4613 6.428 68.4613 7.07866C68.4613 8.44624 68.1028 9.37342 67.3872 9.86201Z" fill="#009CDE"/>
</svg>
