<svg width="24" height="16" viewBox="0 0 24 16" fill="none" xmlns="http://www.w3.org/2000/svg">
<path d="M0 2C0 0.895431 0.895431 0 2 0H22C23.1046 0 24 0.895431 24 2V14C24 15.1046 23.1046 16 22 16H2C0.89543 16 0 15.1046 0 14V2Z" fill="#D8E3F3"/>
<path d="M20.655 5.01733H19.3977C19.0176 5.01733 18.7252 5.13429 18.5498 5.51441L16.1521 10.9822H17.848C17.848 10.9822 18.1404 10.2513 18.1989 10.0758C18.3743 10.0758 20.041 10.0758 20.2749 10.0758C20.3334 10.2805 20.4796 10.953 20.4796 10.953H22.0001L20.655 5.01733ZM18.6667 8.84774C18.8129 8.49687 19.31 7.18108 19.31 7.18108C19.31 7.21032 19.4562 6.8302 19.5147 6.62552L19.6316 7.15184C19.6316 7.15184 19.9533 8.58459 20.0117 8.87698H18.6667V8.84774Z" fill="#3362AB"/>
<path d="M16.269 9.02325C16.269 10.2513 15.1579 11.07 13.4327 11.07C12.7017 11.07 12 10.9238 11.6199 10.7484L11.8538 9.40337L12.0585 9.49109C12.5848 9.72501 12.9357 9.81273 13.5789 9.81273C14.0468 9.81273 14.5438 9.63729 14.5438 9.22793C14.5438 8.96478 14.3392 8.78934 13.6959 8.49694C13.0819 8.20454 12.2631 7.73671 12.2631 6.88875C12.2631 5.71916 13.4035 4.92969 15.0117 4.92969C15.6257 4.92969 16.152 5.04665 16.4737 5.19285L16.2398 6.4794L16.1228 6.36244C15.8304 6.24548 15.4503 6.12852 14.8947 6.12852C14.2807 6.15776 13.9883 6.42092 13.9883 6.65483C13.9883 6.91799 14.3392 7.12267 14.8947 7.38583C15.8304 7.82442 16.269 8.3215 16.269 9.02325Z" fill="#3362AB"/>
<path d="M2 5.07594L2.02924 4.95898H4.54386C4.89474 4.95898 5.15789 5.07594 5.24561 5.45606L5.80117 8.08764C5.24561 6.68413 3.95906 5.54378 2 5.07594Z" fill="#F9B50B"/>
<path d="M9.33915 5.01752L6.79529 10.9532H5.07014L3.60815 5.98243C4.66079 6.65495 5.53798 7.70758 5.85962 8.43857L6.03505 9.05261L7.614 4.98828H9.33915V5.01752Z" fill="#3362AB"/>
<path d="M10.0117 4.98828H11.6199L10.5965 10.9532H8.98828L10.0117 4.98828Z" fill="#3362AB"/>
</svg>
