<svg width="24" height="16" viewBox="0 0 24 16" fill="none" xmlns="http://www.w3.org/2000/svg">
<path d="M0 2C0 0.895431 0.895431 0 2 0H22C23.1046 0 24 0.895431 24 2V14C24 15.1046 23.1046 16 22 16H2C0.89543 16 0 15.1046 0 14V2Z" fill="#CCDEFF"/>
<path d="M5.38541 5.75871C5.13473 5.58638 4.80761 5.5 4.40405 5.5H2.8417C2.71798 5.5 2.64964 5.56187 2.63665 5.6855L2.00199 9.66942C1.9954 9.70855 2.00519 9.74433 2.03127 9.77687C2.05721 9.80946 2.08983 9.82567 2.1289 9.82567H2.87101C3.00117 9.82567 3.07271 9.76394 3.08584 9.64017L3.26158 8.56611C3.268 8.51406 3.29089 8.47174 3.32996 8.43914C3.369 8.40661 3.41783 8.38533 3.47642 8.3756C3.53501 8.36593 3.59025 8.36103 3.64242 8.36103C3.69445 8.36103 3.75626 8.36435 3.82798 8.37082C3.89952 8.3773 3.94513 8.38049 3.96468 8.38049C4.52448 8.38049 4.96389 8.22275 5.28292 7.90692C5.6018 7.59126 5.76142 7.15353 5.76142 6.59355C5.76142 6.20948 5.63597 5.93122 5.38541 5.75862V5.75871ZM4.57988 6.95496C4.54723 7.18284 4.4627 7.33249 4.326 7.40412C4.18928 7.47584 3.99399 7.51154 3.74014 7.51154L3.41789 7.52127L3.58393 6.47643C3.59688 6.40489 3.63917 6.36907 3.71083 6.36907H3.89642C4.15668 6.36907 4.34558 6.40659 4.46276 6.48133C4.57988 6.55624 4.61895 6.71416 4.57988 6.95496Z" fill="#003087"/>
<path d="M21.8729 5.5H21.1504C21.0786 5.5 21.0363 5.53582 21.0234 5.60748L20.3887 9.6696L20.3789 9.68912C20.3789 9.72183 20.3919 9.7526 20.418 9.78191C20.4439 9.81116 20.4766 9.82581 20.5156 9.82581H21.1602C21.2837 9.82581 21.3521 9.76409 21.3653 9.64032L21.9999 5.64655V5.63685C21.9999 5.54567 21.9575 5.50012 21.8729 5.50012V5.5Z" fill="#009CDE"/>
<path d="M13.1434 7.07224C13.1434 7.03977 13.1303 7.00879 13.1044 6.97957C13.0783 6.95029 13.049 6.93555 13.0165 6.93555H12.2647C12.1929 6.93555 12.1343 6.96826 12.0888 7.03317L11.0538 8.55651L10.6242 7.09182C10.5915 6.98775 10.52 6.93555 10.4094 6.93555H9.6769C9.64428 6.93555 9.615 6.95023 9.58912 6.97957C9.563 7.00879 9.55005 7.03983 9.55005 7.07224C9.55005 7.08535 9.61353 7.27732 9.74044 7.64837C9.86735 8.01954 10.004 8.41991 10.1505 8.84958C10.297 9.27916 10.3735 9.50713 10.38 9.53295C9.84616 10.2622 9.57936 10.6527 9.57936 10.7047C9.57936 10.7894 9.62159 10.8317 9.7063 10.8317H10.4582C10.5297 10.8317 10.5883 10.7992 10.634 10.7341L13.124 7.14056C13.1369 7.12767 13.1434 7.10499 13.1434 7.07221V7.07224Z" fill="#003087"/>
<path d="M20.1449 6.93554H19.4027C19.3115 6.93554 19.2564 7.04298 19.2368 7.25785C19.0674 6.99753 18.7584 6.86719 18.3091 6.86719C17.8404 6.86719 17.4416 7.04298 17.113 7.39452C16.7842 7.74605 16.6199 8.15955 16.6199 8.63471C16.6199 9.01887 16.7322 9.3248 16.9567 9.55256C17.1813 9.78056 17.4823 9.89433 17.86 9.89433C18.0488 9.89433 18.2408 9.8552 18.4361 9.77715C18.6314 9.69904 18.7842 9.59494 18.8951 9.46469C18.8951 9.47122 18.8884 9.50042 18.8756 9.55247C18.8624 9.60464 18.856 9.64383 18.856 9.66965C18.856 9.77393 18.8982 9.82586 18.983 9.82586H19.6568C19.7803 9.82586 19.852 9.76414 19.8714 9.64037L20.2719 7.09175C20.2783 7.05266 20.2686 7.01693 20.2426 6.98434C20.2164 6.95186 20.1839 6.93554 20.1449 6.93554ZM18.8706 8.85928C18.7046 9.02203 18.5044 9.10336 18.2701 9.10336C18.0812 9.10336 17.9284 9.05137 17.8111 8.94715C17.6939 8.84322 17.6353 8.69998 17.6353 8.5175C17.6353 8.27682 17.7167 8.0732 17.8795 7.90723C18.042 7.74122 18.244 7.65825 18.4849 7.65825C18.667 7.65825 18.8184 7.71194 18.9389 7.8193C19.0592 7.92675 19.1197 8.07485 19.1197 8.26369C19.1196 8.49801 19.0366 8.69661 18.8706 8.85928Z" fill="#009CDE"/>
<path d="M9.05196 6.93554H8.30983C8.21856 6.93554 8.16334 7.04298 8.14379 7.25785C7.96803 6.99753 7.65879 6.86719 7.21614 6.86719C6.74743 6.86719 6.34865 7.04298 6.01995 7.39452C5.69116 7.74605 5.52686 8.15955 5.52686 8.63471C5.52686 9.01887 5.63917 9.3248 5.86376 9.55256C6.08836 9.78056 6.38936 9.89433 6.76698 9.89433C6.94916 9.89433 7.13806 9.8552 7.33331 9.77715C7.5286 9.69904 7.68485 9.59494 7.80202 9.46469C7.77591 9.54274 7.76295 9.61112 7.76295 9.66965C7.76295 9.77393 7.80525 9.82586 7.88989 9.82586H8.56364C8.68724 9.82586 8.75893 9.76414 8.77848 9.64037L9.17881 7.09175C9.18523 7.05266 9.1755 7.01693 9.14953 6.98434C9.12348 6.95186 9.09097 6.93554 9.05196 6.93554ZM7.77767 8.86411C7.61163 9.02379 7.40811 9.10336 7.1674 9.10336C6.9785 9.10336 6.82715 9.05137 6.71331 8.94715C6.59933 8.84322 6.54241 8.69998 6.54241 8.5175C6.54241 8.27682 6.62374 8.0732 6.78656 7.90723C6.94919 7.74122 7.15101 7.65821 7.39196 7.65821C7.57414 7.65821 7.7255 7.71194 7.84605 7.8193C7.96639 7.92675 8.02668 8.07485 8.02668 8.26369C8.02665 8.50455 7.94367 8.70479 7.77767 8.86411Z" fill="#003087"/>
<path d="M16.4782 5.75871C16.2276 5.58638 15.9006 5.5 15.4969 5.5H13.9443C13.8141 5.5 13.7424 5.56187 13.7295 5.6855L13.0948 9.66942C13.0882 9.70855 13.098 9.74433 13.1241 9.77687C13.1499 9.80946 13.1826 9.82567 13.2217 9.82567H14.0223C14.1004 9.82567 14.1525 9.7834 14.1786 9.69876L14.3544 8.56611C14.3609 8.51406 14.3836 8.47174 14.4228 8.43914C14.4618 8.40661 14.5106 8.38533 14.5692 8.3756C14.6278 8.36593 14.683 8.36103 14.7352 8.36103C14.7873 8.36103 14.8491 8.36435 14.9207 8.37082C14.9923 8.3773 15.038 8.38049 15.0574 8.38049C15.6173 8.38049 16.0567 8.22275 16.3757 7.90692C16.6947 7.59126 16.8542 7.15353 16.8542 6.59355C16.8542 6.20948 16.7288 5.93119 16.4782 5.75862V5.75871ZM15.4774 7.36502C15.3342 7.46265 15.1193 7.51145 14.8329 7.51145L14.5204 7.52124L14.6864 6.47637C14.6993 6.40486 14.7416 6.36898 14.8133 6.36898H14.989C15.1323 6.36898 15.2462 6.37552 15.3309 6.3885C15.4154 6.40158 15.4969 6.4422 15.575 6.51052C15.6532 6.57889 15.6922 6.67822 15.6922 6.80835C15.6922 7.08187 15.6205 7.26731 15.4774 7.36502Z" fill="#009CDE"/>
</svg>
